<svg class="ser" id="Group_111" data-name="Group 111" xmlns="http://www.w3.org/2000/svg" xmlns:xlink="http://www.w3.org/1999/xlink" width="55.389" height="55.386" viewBox="0 0 55.389 55.386">
                    <defs>
                      <clipPath id="clip-path">
                        <rect id="Rectangle_50" data-name="Rectangle 50" width="55.389" height="55.386" fill="#472183"/>
                      </clipPath>
                    </defs>
                    <g id="Group_110" data-name="Group 110" clip-path="url(#clip-path)">
                      <path id="Path_222" data-name="Path 222" d="M53.588,13.715A21.866,21.866,0,0,0,36.338.307,21.419,21.419,0,0,0,24.17,1.793a22.145,22.145,0,0,0-12.213,12.55,21.174,21.174,0,0,0-1.311,10.718A21.9,21.9,0,0,0,13.374,33.2c.61,1.07.574,1.2-.315,2.089C9.489,38.855,5.911,42.413,2.361,46A10.4,10.4,0,0,0,.78,48.038,12.312,12.312,0,0,0,0,50.087v1.3a5.381,5.381,0,0,0,1.289,2.448A5.342,5.342,0,0,0,4,55.385H5.3c2.156-.413,3.63-1.852,5.1-3.335,3.23-3.27,6.494-6.505,9.744-9.755.847-.847.994-.878,2.057-.279a22.092,22.092,0,0,0,9,2.8,21.141,21.141,0,0,0,13.148-3A21.986,21.986,0,0,0,55.094,25.878a21.222,21.222,0,0,0-1.506-12.163M32.958,39.058a16.594,16.594,0,1,1,16.566-16.6,16.6,16.6,0,0,1-16.566,16.6" transform="translate(0 -0.001)" fill="#472183"/>
                      <path id="Path_223" data-name="Path 223" d="M0,230.023a5.271,5.271,0,0,0,4,4H0Z" transform="translate(-0.003 -178.639)" fill="#472183"/>
                      <path id="Path_224" data-name="Path 224" d="M111.479,44.085a2.269,2.269,0,0,1-2.96,1.347,10.294,10.294,0,0,0-5.929-.605,9.749,9.749,0,0,0-7,5.406c-.467.945-1.005,1.758-2.174,1.852A2.289,2.289,0,0,1,91.135,48.8a14.315,14.315,0,0,1,10.01-8.381c1.11-.277,2.27-.355,3.407-.525a17.374,17.374,0,0,1,5.538,1.2,2.323,2.323,0,0,1,1.389,3" transform="translate(-70.602 -30.981)" fill="#472183"/>
                    </g>
                  </svg>